<?xml version="1.0" encoding="UTF-8" standalone="no"?>
<!-- Generator: Adobe Illustrator 18.0.0, SVG Export Plug-In . SVG Version: 6.00 Build 0)  -->

<svg
   xmlns:dc="http://purl.org/dc/elements/1.1/"
   xmlns:cc="http://creativecommons.org/ns#"
   xmlns:rdf="http://www.w3.org/1999/02/22-rdf-syntax-ns#"
   xmlns:svg="http://www.w3.org/2000/svg"
   xmlns="http://www.w3.org/2000/svg"
   xmlns:sodipodi="http://sodipodi.sourceforge.net/DTD/sodipodi-0.dtd"
   xmlns:inkscape="http://www.inkscape.org/namespaces/inkscape"
   version="1.1"
   id="Capa_1"
   x="0px"
   y="0px"
   viewBox="0 0 196.075 196.075"
   style="enable-background:new 0 0 196.075 196.075;"
   xml:space="preserve"
   sodipodi:docname="big-owl_white.svg"
   inkscape:version="0.92.4 (5da689c313, 2019-01-14)"><metadata
   id="metadata39"><rdf:RDF><cc:Work
       rdf:about=""><dc:format>image/svg+xml</dc:format><dc:type
         rdf:resource="http://purl.org/dc/dcmitype/StillImage" /><dc:title></dc:title></cc:Work></rdf:RDF></metadata><defs
   id="defs37" /><sodipodi:namedview
   pagecolor="#ffffff"
   bordercolor="#666666"
   borderopacity="1"
   objecttolerance="10"
   gridtolerance="10"
   guidetolerance="10"
   inkscape:pageopacity="0"
   inkscape:pageshadow="2"
   inkscape:window-width="1920"
   inkscape:window-height="1017"
   id="namedview35"
   showgrid="false"
   inkscape:zoom="1.2036211"
   inkscape:cx="98.037498"
   inkscape:cy="98.037498"
   inkscape:window-x="1912"
   inkscape:window-y="-8"
   inkscape:window-maximized="1"
   inkscape:current-layer="Capa_1" />
<path
   d="M161.88,9.922c-10.316,1.681-13.284,6.32-13.284,6.32s-13.151-4.506-23.857-4.388c-10.7-0.118-23.85,4.388-23.85,4.388  s-2.965-4.64-13.289-6.32C77.288,8.25,70.714,0,70.714,0s3.482,10.059,10.317,15.089c6.833,5.029,6.192,13.532,3.737,18.175  c-2.447,4.646-4.636,8.002-4.516,12.901c0.086,3.121,1.658,11.325,7.758,16.729c-17.993,11.488-47.628,31.9-58.281,104.217  c-6.861,7.285-33.359,52.633,21.528,12.756c23.584,5.149,85.389,10.896,111.165-57.165c8.567-22.339,6.176-45.103-2.131-58.837  c7.087-5.338,8.85-14.393,8.936-17.7c0.133-4.899-2.061-8.256-4.512-12.901c-2.45-4.643-3.093-13.145,3.74-18.175  C175.292,10.059,178.774,0,178.774,0S172.197,8.25,161.88,9.922z"
   id="path2" />
<g
   id="g4">
</g>
<g
   id="g6">
</g>
<g
   id="g8">
</g>
<g
   id="g10">
</g>
<g
   id="g12">
</g>
<g
   id="g14">
</g>
<g
   id="g16">
</g>
<g
   id="g18">
</g>
<g
   id="g20">
</g>
<g
   id="g22">
</g>
<g
   id="g24">
</g>
<g
   id="g26">
</g>
<g
   id="g28">
</g>
<g
   id="g30">
</g>
<g
   id="g32">
</g>
<path
   style="fill:#ffffff;fill-opacity:0.48068668;stroke-width:0.83082628"
   d="m 18.333566,194.69028 c -2.115348,-2.11534 1.293923,-11.83896 7.426319,-21.18067 3.78916,-5.77218 4.149822,-6.82847 6.747722,-19.76251 8.250546,-41.07659 23.806874,-68.259772 49.277341,-86.107398 l 6.711271,-4.702711 -1.654816,-1.766457 C 85.931253,60.198983 84.230814,57.347782 83.062648,54.834533 80.033977,48.318501 80.218527,43.724959 83.830369,35.725529 88.438476,25.519597 87.797077,21.667802 80.166191,13.721027 76.053108,9.4376773 71.794815,3.323305 72.924804,3.323305 c 0.194292,0 2.249674,1.2761926 4.567513,2.8359835 2.623844,1.7657167 6.465916,3.3481131 10.180688,4.1930205 6.540517,1.487608 8.565595,2.344247 11.198533,4.737152 1.723282,1.56618 1.840512,1.561928 8.308262,-0.301373 9.1105,-2.624652 26.04446,-2.639279 35.20776,-0.03041 5.19827,1.479991 6.42167,1.589304 7.47744,0.668124 2.23416,-1.949348 6.29716,-3.683856 11.96318,-5.107113 3.04194,-0.7641099 7.58021,-2.623386 10.08505,-4.1317245 2.50485,-1.5083402 4.55427,-2.4519345 4.55427,-2.0968781 0,1.2077321 -5.24424,7.9453016 -8.78002,11.2801976 -3.9307,3.707379 -5.81857,8.800411 -4.87626,13.155036 0.31309,1.446864 1.72112,4.873894 3.12894,7.61562 4.43748,8.641917 3.0712,17.844703 -3.7099,24.98872 l -2.42655,2.556412 2.46616,5.336438 c 6.52874,14.127309 6.66522,34.01861 0.355,51.73775 -3.45047,9.68893 -10.97173,23.36711 -16.86896,30.67794 -10.75285,13.33038 -26.08006,23.23961 -43.00455,27.80299 -7.484817,2.01813 -9.453047,2.19357 -25.152187,2.24191 -11.048318,0.0341 -18.649338,-0.32046 -21.635747,-1.00899 l -4.60381,-1.06143 -8.273997,5.54546 c -4.5507,3.05001 -10.51723,6.6118 -13.258956,7.91509 -4.650892,2.21083 -10.219008,3.09114 -11.493097,1.81705 z"
   id="path3744"
   inkscape:connector-curvature="0" /><path
   style="fill:#ffffff;fill-opacity:0.48068668;stroke-width:0.83082628"
   d="m 18.126593,193.47267 c -1.144234,-1.2889 -1.300514,-1.89693 -0.554618,-2.15783 0.571193,-0.1998 1.038533,-0.99694 1.038533,-1.77143 0,-1.66171 5.15374,-12.63739 7.444866,-15.85499 0.877051,-1.23169 1.710511,-2.77266 1.852137,-3.42436 0.141625,-0.6517 0.716947,-1.56013 1.278495,-2.01874 0.561548,-0.4586 1.09506,-2.14238 1.185581,-3.74172 0.09052,-1.59934 0.516412,-3.37324 0.946421,-3.942 0.430009,-0.56876 0.585775,-1.78384 0.346147,-2.70018 -0.23963,-0.91635 -0.05324,-1.66608 0.414211,-1.66608 0.467444,0 0.671224,-0.93468 0.452843,-2.07707 -0.218381,-1.14239 -0.107893,-2.07706 0.24553,-2.07706 0.353423,0 0.907908,-1.58896 1.23219,-3.53102 0.324282,-1.94205 1.683218,-7.26973 3.019859,-11.83927 9.17422,-31.36372 22.999331,-52.737198 43.798712,-67.712341 4.125396,-2.970203 7.516852,-5.809765 7.536568,-6.310135 0.01971,-0.500371 -0.677325,-1.555177 -1.54898,-2.344013 C 82.187075,56.116137 80.243953,45.024424 83.006682,38.565305 85.462326,32.824131 86.781908,27.587704 86.484323,24.765163 85.987065,20.048742 85.883407,19.887485 75.225554,7.2500984 74.272835,6.1204263 74.210897,5.5484236 74.96016,4.799161 c 0.749262,-0.7492628 0.97736,-0.7486219 0.97736,0.00275 0,1.1589661 6.205854,4.5009962 6.959149,3.7477011 0.285058,-0.2850581 0.518287,-0.042103 0.518287,0.5398991 0,0.5890112 0.540757,0.8506787 1.219633,0.5901697 0.670797,-0.2574093 1.460736,-0.077902 1.755418,0.3989041 0.294683,0.476806 1.241335,0.682415 2.103673,0.456909 0.862338,-0.225506 1.567886,-0.100848 1.567886,0.277019 0,0.377868 1.075522,0.923256 2.390049,1.211975 1.314528,0.288718 3.630394,1.440039 5.146371,2.558492 2.755524,2.032959 5.756804,2.700544 5.756804,1.280505 0,-0.414175 0.74774,-0.557505 1.66165,-0.318513 0.91391,0.238992 1.66165,0.05206 1.66165,-0.415413 0,-0.46747 0.74775,-0.654406 1.66165,-0.415413 0.91391,0.238992 1.66194,0.110523 1.66229,-0.285489 8.3e-4,-1.174297 21.46129,-1.387786 27.41731,-0.272749 2.96983,0.555985 6.21954,1.114871 7.22159,1.241969 1.00203,0.127097 2.21188,0.472117 2.68854,0.76671 0.47666,0.294594 2.46085,-0.385931 4.40931,-1.512277 1.94846,-1.126347 5.59894,-2.639798 8.11219,-3.363225 4.12407,-1.187097 11.40849,-4.3797519 12.4624,-5.4620894 0.22847,-0.2346413 1.12147,-0.5483697 1.98443,-0.6971743 1.53815,-0.2652295 1.53815,-0.2302529 0,1.7773772 -12.07312,15.7581575 -11.95435,15.5699765 -11.95435,18.9408115 0,1.822387 0.63388,4.509948 1.40861,5.972357 0.77474,1.46241 1.50352,3.032799 1.61952,3.489753 0.116,0.456954 0.8275,2.513249 1.58111,4.569544 2.50088,6.823874 0.61153,14.792134 -4.87903,20.577183 -2.43987,2.570729 -2.51859,2.856602 -1.48707,5.400371 4.82548,11.89986 5.36763,14.266906 5.74361,25.076471 0.55139,15.853441 -1.45928,25.256271 -8.5367,39.921451 -10.02216,20.76699 -22.50199,33.72245 -41.18988,42.75971 -3.68607,1.78254 -9.29661,3.90938 -12.46787,4.72632 -3.17126,0.81693 -5.765921,1.71165 -5.765921,1.98826 0,0.2766 -1.121615,0.33829 -2.492479,0.13709 -1.560249,-0.229 -2.492479,-0.002 -2.492479,0.60834 0,0.53578 -0.280403,0.80101 -0.623119,0.58937 -0.342716,-0.21163 -8.941768,-0.50669 -19.109004,-0.6557 -10.167237,-0.14901 -18.485884,-0.58923 -18.485884,-0.97828 0,-1.92337 -6.27307,0.59404 -13.844149,5.55574 -13.477683,8.83258 -20.297803,11.15142 -23.196122,7.88668 z"
   id="path3746"
   inkscape:connector-curvature="0" /><path
   style="fill:#ffffff;fill-opacity:0.48068668;stroke-width:0.83082628"
   d="m 18.674298,193.24396 c -1.200188,-1.44613 1.312783,-7.99254 7.150802,-18.62817 2.174989,-3.96237 3.858523,-7.52406 3.741187,-7.91487 -0.117337,-0.39081 0.14086,-1.13856 0.57377,-1.66165 0.43291,-0.5231 1.224601,-3.38125 1.759314,-6.35145 0.534711,-2.97021 2.28272,-10.26071 3.884461,-16.20112 9.266533,-34.36694 22.250917,-55.532307 44.723232,-72.901686 4.11259,-3.178717 7.58849,-6.074824 7.724221,-6.435793 0.135731,-0.360968 -0.8756,-2.426123 -2.247404,-4.589233 -2.857551,-4.505891 -4.606821,-11.658325 -3.810734,-15.581371 0.299509,-1.475948 1.286892,-4.726261 2.194188,-7.222916 2.102496,-5.78556 2.981337,-14.154218 1.486414,-14.154218 -0.579745,0 -0.7996,-0.254482 -0.488566,-0.565516 0.311034,-0.311035 -0.444346,-1.619586 -1.678621,-2.907892 -1.234277,-1.288307 -1.941839,-2.342376 -1.572361,-2.342376 0.369476,0 -1.056063,-2.022457 -3.167865,-4.494348 -4.338667,-5.078464 -5.035382,-7.2467382 -1.55487,-4.8389703 2.749526,1.9020824 8.825647,4.3467943 10.817554,4.3524173 0.790423,0.0022 4.03553,1.337455 7.211348,2.967166 l 5.774212,2.963109 5.19728,-1.305514 c 6.65265,-1.67109 28.32504,-1.737386 35.91529,-0.109864 l 5.30388,1.137277 8.08454,-3.243529 c 4.4465,-1.78394 8.50903,-3.2435279 9.02786,-3.2435279 0.51883,0 0.94333,-0.3738718 0.94333,-0.8308263 0,-0.4569544 0.2804,-0.7567528 0.62312,-0.6662187 0.99616,0.263155 4.36183,-1.0493944 4.36183,-1.7010377 0,-0.3264961 0.97931,-0.6746795 2.17625,-0.7737411 l 2.17625,-0.1801118 -2.88981,3.5299138 c -1.5894,1.9414527 -4.43807,5.7416577 -6.33038,8.4449017 -4.24296,6.061227 -4.39153,8.785664 -0.94809,17.385243 4.06929,10.162563 3.31294,17.293076 -2.61703,24.672126 l -2.70884,3.370791 2.60192,7.646063 c 3.57934,10.518281 3.63895,10.914159 3.63782,24.159234 -8.3e-4,13.672228 -1.35707,20.157888 -6.81697,32.607318 -11.10661,25.32485 -28.67023,41.64948 -53.91639,50.11295 -9.889397,3.31531 -17.438655,3.83573 -38.599251,2.6609 l -15.751527,-0.87451 -9.544013,5.87798 c -14.192118,8.74066 -20.009405,10.77062 -22.447351,7.83307 z"
   id="path3748"
   inkscape:connector-curvature="0" /><path
   style="fill:#ffffff;fill-opacity:0.48068668;stroke-width:0.83082628"
   d="m 19.649041,193.8631 c -1.998532,-0.80642 -0.996359,-4.30927 4.31199,-15.07151 2.942787,-5.96626 5.466422,-11.52833 5.608077,-12.36016 0.141655,-0.83183 0.459353,-1.69935 0.705996,-1.92783 0.246642,-0.22848 2.163858,-7.33204 4.260478,-15.7857 9.143794,-36.86816 21.265869,-58.465152 42.805901,-76.264091 4.552539,-3.76185 8.996555,-7.370118 9.875594,-8.018375 1.552575,-1.144965 1.517681,-1.326004 -1.22105,-6.334969 -3.743486,-6.846595 -4.3354,-13.894221 -1.774555,-21.128697 0.970511,-2.741726 1.973647,-7.228188 2.229192,-9.969915 0.421835,-4.52585 0.265273,-5.21451 -1.699939,-7.477436 -1.190511,-1.370863 -2.179282,-2.866351 -2.197269,-3.323305 -0.01799,-0.456954 -1.68482,-2.872012 -3.704074,-5.366794 -3.958426,-4.8906213 -4.232802,-5.9223533 -1.014127,-3.8133964 1.123049,0.7358496 4.987674,2.2948314 8.588055,3.4644034 3.600382,1.169573 8.311025,3.080979 10.468098,4.247569 3.822842,2.067478 4.053772,2.091831 9.139092,0.963819 6.56419,-1.456053 30.81729,-1.49941 37.11503,-0.06635 4.41412,1.004441 4.62686,0.962391 14.33175,-2.833006 5.41812,-2.11892 9.85113,-4.2047975 9.85113,-4.6352839 0,-0.4304864 0.33495,-0.5756859 0.74435,-0.3226655 0.4094,0.2530203 1.79435,-0.084703 3.07767,-0.7504961 1.28331,-0.6657932 2.48938,-1.0544544 2.68014,-0.8636914 0.19077,0.1907628 -1.56806,2.753326 -3.90849,5.6945849 -2.34043,2.941259 -4.25532,5.76207 -4.25532,6.268471 0,0.506401 -0.43619,0.920728 -0.9693,0.920728 -0.53311,0 -0.73785,0.231444 -0.45498,0.514321 0.28288,0.282877 -0.0287,1.057326 -0.69235,1.720997 -1.8061,1.806104 -1.46047,7.02239 0.87673,13.231792 4.01117,10.656659 3.46578,17.128241 -2.07885,24.667761 -1.37337,1.867495 -2.49704,3.861327 -2.49704,4.430738 0,0.56941 1.18273,4.514879 2.6283,8.767707 2.17939,6.411745 2.69266,9.375075 3.00514,17.350067 0.66672,17.015643 -1.68943,27.828353 -9.4004,43.139813 -9.25356,18.37457 -22.65709,31.80054 -39.85142,39.91814 -15.59785,7.36389 -24.214096,8.66065 -48.874598,7.35573 l -16.472378,-0.87164 -9.968843,5.98137 c -12.633684,7.58029 -18.160045,9.80128 -21.26773,8.5473 z"
   id="path3750"
   inkscape:connector-curvature="0" /><path
   style="fill:#ffffff;fill-opacity:0.48068668;stroke-width:0.83082628"
   d="m 19.464357,193.19485 c -1.317639,-1.58766 -0.04849,-5.28711 5.92382,-17.26739 2.221023,-4.45531 3.802099,-8.10056 3.513504,-8.10056 -0.288595,0 -0.0815,-0.53403 0.460199,-1.18675 0.541706,-0.65271 2.80165,-8.22362 5.022101,-16.82423 6.496665,-25.16396 12.051921,-39.10178 21.145176,-53.05207 5.453289,-8.366084 16.425025,-20.014982 26.01644,-27.622143 3.769874,-2.989969 6.854317,-5.738648 6.854317,-6.108174 0,-0.369526 -1.149398,-2.933733 -2.554218,-5.698238 -3.505286,-6.897951 -3.964524,-12.35084 -1.675002,-19.888593 0.990618,-3.261393 1.593603,-6.265581 1.339967,-6.675972 -0.253637,-0.410392 -0.08119,-0.981002 0.383222,-1.268022 0.464408,-0.28702 0.844378,-2.046562 0.844378,-3.910093 0,-3.295429 -2.79534,-8.353811 -9.295831,-16.8215183 -1.738421,-2.2645119 -1.755923,-2.393406 -0.23702,-1.7455594 0.902001,0.3847241 4.515978,1.7481956 8.031061,3.0299367 3.515082,1.281741 8.360113,3.328234 10.766735,4.547761 4.205974,2.131329 4.589884,2.179044 9.898684,1.230307 6.82022,-1.218841 31.462,-1.270367 36.78739,-0.07692 4.83183,1.082837 5.829,0.8402 19.17644,-4.666149 5.90613,-2.4365134 10.89938,-4.2690677 11.09611,-4.0723425 0.19672,0.1967253 -1.38604,2.6237788 -3.51726,5.3934525 -2.13121,2.769673 -3.57267,5.047661 -3.20326,5.062193 0.36943,0.01453 0.0784,0.481872 -0.64655,1.038532 -3.82313,2.93531 -4.14454,7.704273 -1.10828,16.444582 1.3036,3.752596 2.17734,8.145132 2.23065,11.213969 0.0888,5.114032 -0.10163,5.61897 -5.66077,15.008198 -1.5397,2.600527 -1.53702,2.624083 1.32607,11.631567 2.78526,8.762568 2.8664,9.401287 2.78301,21.903567 -0.0692,10.370349 -0.43212,14.153289 -1.86394,19.428389 -5.32969,19.63565 -18.27907,39.21691 -33.22334,50.23828 -6.51552,4.8052 -16.63012,10.01031 -25.66449,13.20729 l -6.459254,2.28573 H 73.860454 49.766493 l -7.305783,4.36808 c -14.912995,8.91638 -21.045279,11.30378 -22.996353,8.95289 z"
   id="path3752"
   inkscape:connector-curvature="0" /></svg>